<svg id="Layer_1" data-name="Layer 1" xmlns="http://www.w3.org/2000/svg" viewBox="0 0 290.16 210"><defs><style>.cls-1{fill:#4385f4;}.cls-2{isolation:isolate;}.cls-3{fill:#4a4a4a;}</style></defs><title>blue-sticker</title><path class="cls-1" d="M174.62,25.48H129.7c-16.24,3.88-16.58,17.38-16.58,17.38V88.48h17.28V46.94a4.25,4.25,0,0,1,3.45-4.15h40.77Zm-34.14,24s-3.36-.33-3.36,2.64V65.35h22.19v4a1.9,1.9,0,0,1-2,2H137.12V88.48h24.21S176,86.23,176.12,71.3V49.49Z"/><path class="cls-1" d="M85.69,129.14c-.56.38-1,.66-1.26.84a22.33,22.33,0,0,1-3,1.57,9.39,9.39,0,0,1-3.58.84,12.76,12.76,0,0,1-9.13-3.44,11.4,11.4,0,0,1-3.66-8.68,12.74,12.74,0,0,1,3.29-8.76,10.29,10.29,0,0,1,8-3.7,13.28,13.28,0,0,1,4.16.71,11.47,11.47,0,0,1,4.62,2.71L83.1,113.6a8.09,8.09,0,0,0-3.41-1.95,11.68,11.68,0,0,0-3.36-.46,6.92,6.92,0,0,0-5.54,2.71,10,10,0,0,0-2.23,6.51,8.26,8.26,0,0,0,2.54,6.2,8.91,8.91,0,0,0,6.46,2.48,6.49,6.49,0,0,0,3.34-1c.94-.73,1.43-1.09,1.45-1.11v-5.19H75.28l1-3.24h9.39ZM107,122.81a9.1,9.1,0,0,1-2.61,6.51,8.75,8.75,0,0,1-12.71.05,8.89,8.89,0,0,1-2.66-6.53,9.47,9.47,0,0,1,2.54-6.58,8.06,8.06,0,0,1,6.22-2.78,8.75,8.75,0,0,1,6.63,2.68A9.12,9.12,0,0,1,107,122.81Zm-3.32.05a6,6,0,0,0-1.67-4.3,5.43,5.43,0,0,0-4.14-1.77A5.1,5.1,0,0,0,94,118.61a6.06,6.06,0,0,0-1.62,4.18A5.93,5.93,0,0,0,94,127a5.38,5.38,0,0,0,4.09,1.77A5.27,5.27,0,0,0,102,127,5.74,5.74,0,0,0,103.72,122.86Zm24.38-.05a9.1,9.1,0,0,1-2.61,6.51,8.75,8.75,0,0,1-12.71.05,8.89,8.89,0,0,1-2.66-6.53,9.47,9.47,0,0,1,2.54-6.58,8.06,8.06,0,0,1,6.22-2.78,8.75,8.75,0,0,1,6.63,2.68A9.12,9.12,0,0,1,128.1,122.81Zm-3.32.05a6,6,0,0,0-1.67-4.3,5.43,5.43,0,0,0-4.14-1.77,5.1,5.1,0,0,0-3.95,1.82,6.06,6.06,0,0,0-1.62,4.18,5.93,5.93,0,0,0,1.65,4.2,5.38,5.38,0,0,0,4.09,1.77,5.27,5.27,0,0,0,3.95-1.75A5.74,5.74,0,0,0,124.78,122.86Zm22.8,8.71-3,.48v-3l-.65.76a8,8,0,0,1-1.94,1.37,7.69,7.69,0,0,1-3.32.73,7.9,7.9,0,0,1-6.05-2.68,9.15,9.15,0,0,1-2.47-6.4,9.58,9.58,0,0,1,2.44-6.58,7.68,7.68,0,0,1,6-2.73,8.44,8.44,0,0,1,3.53.68,6,6,0,0,1,1.82,1.29l.51.71v-7.9l3.24-.48ZM144.73,123a6.16,6.16,0,0,0-1.77-4.48,5.42,5.42,0,0,0-4-1.85,5.21,5.21,0,0,0-4.09,1.75,6,6,0,0,0-1.48,4.08,6.54,6.54,0,0,0,1.52,4.45,4.9,4.9,0,0,0,3.87,1.75,6,6,0,0,0,4.11-1.62,5.31,5.31,0,0,0,1.86-4.08Zm20-11.47h-9.08v6.3h7v3.24h-7v10.43l-3.53.53V108.31H164Zm7.29-1.85-2.18,2.81-2.08-2.81,2.2-2.78,2.06,2.78Zm-.65,21.84-3.24.46V114.43l3.24-.51ZM186,113.75l-1.52,3.59a4.19,4.19,0,0,0-.61-.05,5.93,5.93,0,0,0-.94.08,3.74,3.74,0,0,0-1,.35,4,4,0,0,0-1.77,1.95,8,8,0,0,0-.85,3.62v8.25l-3.24.53V114.43l3-.56v3.67c.39-.63.8-1.27,1.19-1.92a4.8,4.8,0,0,1,1.94-1.42,15,15,0,0,1,3.82-.46Zm24.16,17.82-3.24.48V120a3.43,3.43,0,0,0-.73-2.43,3.2,3.2,0,0,0-4.74.68,4.11,4.11,0,0,0-.61,2.08v11.24l-3.24.61v-12.1a3.73,3.73,0,0,0-.7-2.43,2.42,2.42,0,0,0-1.94-.84h-.31a2.57,2.57,0,0,0-2.47,1.47,6,6,0,0,0-.58,2.81v10.48l-3.36.61V114.43l3-.53v2.25a7.06,7.06,0,0,1,1-1.27,4.24,4.24,0,0,1,3-1.24,5.24,5.24,0,0,1,2.88.63,5.42,5.42,0,0,1,1.62,2.08,5.29,5.29,0,0,1,4.77-2.71,5.17,5.17,0,0,1,4.43,1.92,7.74,7.74,0,0,1,1.19,4.68Zm14.81-5.34a5.23,5.23,0,0,1-1.67,4,5.84,5.84,0,0,1-4.21,1.57,6.7,6.7,0,0,1-3.46-.91,6.52,6.52,0,0,1-2.32-2.1l2.28-2.08a4.59,4.59,0,0,0,.46.61,4.08,4.08,0,0,0,3,1.34A2.74,2.74,0,0,0,221,128a2.3,2.3,0,0,0,.7-1.82q0-1.33-1.67-1.82-3.3-1-3.56-1.14a6.18,6.18,0,0,1-2.2-1.72,5,5,0,0,1-.77-2.94,5,5,0,0,1,1.65-3.8,5.52,5.52,0,0,1,3.9-1.49,6.49,6.49,0,0,1,3.17.78,5.45,5.45,0,0,1,2.08,1.75L222.36,118a7.14,7.14,0,0,0-.94-.81,3.87,3.87,0,0,0-2.23-.84,2.86,2.86,0,0,0-1.67.46,2,2,0,0,0-.77,1.67,1.73,1.73,0,0,0,.75,1.57,10.31,10.31,0,0,0,2.81.91,6.57,6.57,0,0,1,3.36,1.82A4.69,4.69,0,0,1,224.95,126.23Z"/><g class="cls-2"><path class="cls-3" d="M52.12,161.38a.44.44,0,0,1,.43.43V163a.44.44,0,0,1-.43.43H49.24v8.77a.44.44,0,0,1-.43.43h-1.3a.44.44,0,0,1-.43-.43v-8.77H44.2a.44.44,0,0,1-.43-.43v-1.14a.44.44,0,0,1,.43-.43Z"/><path class="cls-3" d="M56.24,164.1a4.43,4.43,0,0,1,1.59.27,3.78,3.78,0,0,1,1.23.75,3.75,3.75,0,0,1,.83,1.12,3.66,3.66,0,0,1,.36,1.38,3.44,3.44,0,0,1,0,.37v.89a3.36,3.36,0,0,1,0,.36,4,4,0,0,1-.37,1.38,3.52,3.52,0,0,1-.82,1.11,3.83,3.83,0,0,1-1.23.74,4.79,4.79,0,0,1-3.18,0,3.83,3.83,0,0,1-1.23-.74,3.52,3.52,0,0,1-.82-1.11,4,4,0,0,1-.37-1.38c0-.1,0-.22,0-.36s0-.29,0-.44,0-.3,0-.45,0-.27,0-.37a3.66,3.66,0,0,1,.36-1.38,3.75,3.75,0,0,1,.83-1.12,3.78,3.78,0,0,1,1.23-.75A4.43,4.43,0,0,1,56.24,164.1Zm1.94,3.6a2.1,2.1,0,0,0-.23-.82,1.56,1.56,0,0,0-.46-.52,1.64,1.64,0,0,0-.59-.26,3.05,3.05,0,0,0-1.31,0,1.63,1.63,0,0,0-.59.26,1.54,1.54,0,0,0-.46.52,2.08,2.08,0,0,0-.23.82c0,.08,0,.19,0,.32s0,.26,0,.4,0,.28,0,.41a3.09,3.09,0,0,0,0,.31,2.08,2.08,0,0,0,.23.82,1.54,1.54,0,0,0,.46.52,1.63,1.63,0,0,0,.59.26,3,3,0,0,0,1.31,0,1.64,1.64,0,0,0,.59-.26,1.56,1.56,0,0,0,.46-.52,2.1,2.1,0,0,0,.23-.82,2.29,2.29,0,0,0,0-.31V168A2.61,2.61,0,0,0,58.18,167.7Z"/><path class="cls-3" d="M66.6,172.74a3.76,3.76,0,0,1-.89-.1,3.49,3.49,0,0,1-.69-.24,2.65,2.65,0,0,1-.5-.31,2.78,2.78,0,0,1-.34-.31v3.41a.44.44,0,0,1-.43.43H62.53a.44.44,0,0,1-.43-.43v-10.5a.44.44,0,0,1,.43-.43h1.22a.44.44,0,0,1,.43.43v.37a2.78,2.78,0,0,1,.34-.31,2.61,2.61,0,0,1,.5-.31,3.37,3.37,0,0,1,.69-.24,3.71,3.71,0,0,1,.89-.1,3.3,3.3,0,0,1,1.45.31,3.43,3.43,0,0,1,1.1.83,4,4,0,0,1,.72,1.2,4.42,4.42,0,0,1,.3,1.42c0,.16,0,.35,0,.56s0,.4,0,.56a4.43,4.43,0,0,1-.3,1.42,4,4,0,0,1-.72,1.2,3.43,3.43,0,0,1-1.1.83A3.3,3.3,0,0,1,66.6,172.74Zm1.49-3.87a4.17,4.17,0,0,0,0-.9,2.12,2.12,0,0,0-.64-1.5,2,2,0,0,0-1.33-.46,1.94,1.94,0,0,0-1.32.46,1.91,1.91,0,0,0-.62,1.33,5.75,5.75,0,0,0,0,1.22,1.93,1.93,0,0,0,.62,1.31,1.91,1.91,0,0,0,1.32.48,2,2,0,0,0,1.33-.46A2.12,2.12,0,0,0,68.08,168.87Z"/><path class="cls-3" d="M82.85,161.38a.44.44,0,0,1,.43.43V163a.44.44,0,0,1-.43.43H80v8.77a.44.44,0,0,1-.43.43h-1.3a.44.44,0,0,1-.43-.43v-8.77H74.93a.44.44,0,0,1-.43-.43v-1.14a.44.44,0,0,1,.43-.43Z"/><path class="cls-3" d="M82.9,168.42a5.15,5.15,0,0,1,.27-1.69,4,4,0,0,1,.78-1.38,3.66,3.66,0,0,1,1.24-.92,3.82,3.82,0,0,1,1.62-.34,3.92,3.92,0,0,1,1.62.33,3.81,3.81,0,0,1,1.24.88,3.9,3.9,0,0,1,.79,1.3,4.39,4.39,0,0,1,.28,1.56v.72a.44.44,0,0,1-.43.43H85a1.33,1.33,0,0,0,.15.65,1.46,1.46,0,0,0,.41.47,1.78,1.78,0,0,0,.59.29,2.47,2.47,0,0,0,.69.1,2.75,2.75,0,0,0,.83-.1,1.75,1.75,0,0,0,.53-.26,1.56,1.56,0,0,1,.29-.18.78.78,0,0,1,.3,0h1.28a.44.44,0,0,1,.31.13.35.35,0,0,1,.12.3,1.31,1.31,0,0,1-.25.58,2.75,2.75,0,0,1-.7.69,4.49,4.49,0,0,1-1.14.58,4.72,4.72,0,0,1-1.58.24,4.08,4.08,0,0,1-1.62-.31,3.45,3.45,0,0,1-1.24-.89,4,4,0,0,1-.78-1.37A5.35,5.35,0,0,1,82.9,168.42Zm3.92-2.4a2.06,2.06,0,0,0-.79.14,1.76,1.76,0,0,0-.55.35,1.57,1.57,0,0,0-.34.48,1.8,1.8,0,0,0-.15.5H88.6a2.76,2.76,0,0,0-.12-.5,1.31,1.31,0,0,0-.29-.48,1.49,1.49,0,0,0-.53-.35A2.21,2.21,0,0,0,86.82,166Z"/><path class="cls-3" d="M94.58,172.15a.44.44,0,0,1-.43.43H92.93a.44.44,0,0,1-.43-.43v-10.5a.44.44,0,0,1,.43-.43h1.22a.44.44,0,0,1,.43.43Z"/><path class="cls-3" d="M96.37,168.42a5.15,5.15,0,0,1,.27-1.69,4,4,0,0,1,.78-1.38,3.66,3.66,0,0,1,1.24-.92,3.82,3.82,0,0,1,1.62-.34,3.92,3.92,0,0,1,1.62.33,3.81,3.81,0,0,1,1.24.88,3.9,3.9,0,0,1,.79,1.3,4.39,4.39,0,0,1,.28,1.56v.72a.44.44,0,0,1-.43.43H98.45a1.33,1.33,0,0,0,.15.65,1.46,1.46,0,0,0,.41.47,1.78,1.78,0,0,0,.59.29,2.47,2.47,0,0,0,.69.1,2.75,2.75,0,0,0,.83-.1,1.75,1.75,0,0,0,.53-.26,1.56,1.56,0,0,1,.29-.18.78.78,0,0,1,.3,0h1.28a.44.44,0,0,1,.31.13.35.35,0,0,1,.12.3,1.31,1.31,0,0,1-.25.58,2.75,2.75,0,0,1-.7.69,4.49,4.49,0,0,1-1.14.58,4.72,4.72,0,0,1-1.58.24,4.08,4.08,0,0,1-1.62-.31,3.45,3.45,0,0,1-1.24-.89,4,4,0,0,1-.78-1.37A5.35,5.35,0,0,1,96.37,168.42Zm3.92-2.4a2.06,2.06,0,0,0-.79.14,1.76,1.76,0,0,0-.55.35,1.57,1.57,0,0,0-.34.48,1.8,1.8,0,0,0-.15.5h3.62a2.76,2.76,0,0,0-.12-.5,1.31,1.31,0,0,0-.29-.48,1.49,1.49,0,0,0-.53-.35A2.21,2.21,0,0,0,100.29,166Z"/><path class="cls-3" d="M108.05,165.06a2.59,2.59,0,0,1,.93-.71,2.72,2.72,0,0,1,1.14-.25,3.22,3.22,0,0,1,1.65.38,2.82,2.82,0,0,1,1,1,2.62,2.62,0,0,1,.51-.58,3.43,3.43,0,0,1,.65-.43,3.19,3.19,0,0,1,.71-.26,3.1,3.1,0,0,1,.72-.09,3.38,3.38,0,0,1,1.52.3,2.69,2.69,0,0,1,1,.82,3.17,3.17,0,0,1,.53,1.19,6.53,6.53,0,0,1,.15,1.43v4.3a.44.44,0,0,1-.43.43H116.9a.44.44,0,0,1-.43-.43v-4.22a2.18,2.18,0,0,0-.42-1.52,1.55,1.55,0,0,0-1.17-.43,1.57,1.57,0,0,0-1.1.42,2,2,0,0,0-.49,1.46v4.3a.44.44,0,0,1-.43.43h-1.22a.44.44,0,0,1-.43-.43v-4.22a2.18,2.18,0,0,0-.42-1.52,1.55,1.55,0,0,0-1.17-.43,1.57,1.57,0,0,0-1.12.44,2,2,0,0,0-.46,1.51v4.22a.44.44,0,0,1-.43.43H106.4a.44.44,0,0,1-.43-.43v-7.46a.44.44,0,0,1,.43-.43h1.22a.44.44,0,0,1,.43.43Z"/><path class="cls-3" d="M120.26,168.42a5.15,5.15,0,0,1,.27-1.69,4,4,0,0,1,.78-1.38,3.66,3.66,0,0,1,1.24-.92,3.82,3.82,0,0,1,1.62-.34,3.92,3.92,0,0,1,1.62.33,3.81,3.81,0,0,1,1.24.88,3.9,3.9,0,0,1,.79,1.3,4.39,4.39,0,0,1,.28,1.56v.72a.44.44,0,0,1-.43.43h-5.34a1.33,1.33,0,0,0,.15.65,1.46,1.46,0,0,0,.41.47,1.78,1.78,0,0,0,.59.29,2.47,2.47,0,0,0,.69.1,2.75,2.75,0,0,0,.83-.1,1.75,1.75,0,0,0,.53-.26,1.56,1.56,0,0,1,.29-.18.78.78,0,0,1,.3,0h1.28a.44.44,0,0,1,.31.13.35.35,0,0,1,.12.3,1.31,1.31,0,0,1-.25.58,2.75,2.75,0,0,1-.7.69,4.49,4.49,0,0,1-1.14.58,4.72,4.72,0,0,1-1.58.24,4.08,4.08,0,0,1-1.62-.31,3.45,3.45,0,0,1-1.24-.89,4,4,0,0,1-.78-1.37A5.35,5.35,0,0,1,120.26,168.42Zm3.92-2.4a2.06,2.06,0,0,0-.79.14,1.76,1.76,0,0,0-.55.35,1.57,1.57,0,0,0-.34.48,1.8,1.8,0,0,0-.15.5H126a2.76,2.76,0,0,0-.12-.5,1.31,1.31,0,0,0-.29-.48,1.49,1.49,0,0,0-.53-.35A2.21,2.21,0,0,0,124.18,166Z"/><path class="cls-3" d="M133.06,164.1a3.72,3.72,0,0,1,.89.1,3.37,3.37,0,0,1,.69.24,2.61,2.61,0,0,1,.5.31,2.85,2.85,0,0,1,.34.31v-3.41a.44.44,0,0,1,.43-.43h1.22a.44.44,0,0,1,.43.43v10.5a.44.44,0,0,1-.43.43h-1.22a.44.44,0,0,1-.43-.43v-.37a2.85,2.85,0,0,1-.34.31,2.65,2.65,0,0,1-.5.31,3.49,3.49,0,0,1-.69.24,3.77,3.77,0,0,1-.89.1,3.3,3.3,0,0,1-1.45-.31,3.43,3.43,0,0,1-1.1-.83,4,4,0,0,1-.72-1.2,4.41,4.41,0,0,1-.3-1.42c0-.16,0-.35,0-.56s0-.4,0-.56a4.4,4.4,0,0,1,.3-1.42,4,4,0,0,1,.72-1.2,3.43,3.43,0,0,1,1.1-.83A3.3,3.3,0,0,1,133.06,164.1ZM131.57,168a4.3,4.3,0,0,0,0,.9,2.12,2.12,0,0,0,.64,1.5,2,2,0,0,0,1.33.46,1.94,1.94,0,0,0,1.32-.46,1.91,1.91,0,0,0,.62-1.33,5.75,5.75,0,0,0,0-1.22,1.94,1.94,0,0,0-.62-1.31,1.9,1.9,0,0,0-1.32-.48,2,2,0,0,0-1.33.46A2.12,2.12,0,0,0,131.57,168Z"/><path class="cls-3" d="M141.49,161.22a.44.44,0,0,1,.43.43v1.25a.44.44,0,0,1-.43.43h-1.38a.44.44,0,0,1-.43-.43v-1.25a.44.44,0,0,1,.43-.43Zm.35,10.93a.44.44,0,0,1-.43.43h-1.22a.44.44,0,0,1-.43-.43v-7.46a.44.44,0,0,1,.43-.43h1.22a.44.44,0,0,1,.43.43Z"/><path class="cls-3" d="M145.73,167.86a4.88,4.88,0,0,0,0,1.12,2.39,2.39,0,0,0,.22.85,1.7,1.7,0,0,0,.44.57,1.79,1.79,0,0,0,.58.32,2.1,2.1,0,0,0,.66.1,3,3,0,0,0,.67-.06,1.53,1.53,0,0,0,.46-.18,1.51,1.51,0,0,0,.33-.27,3.05,3.05,0,0,0,.26-.34,2.61,2.61,0,0,1,.22-.29.39.39,0,0,1,.3-.14h1.22a.44.44,0,0,1,.31.13.35.35,0,0,1,.12.3,2.27,2.27,0,0,1-.24.82,3,3,0,0,1-.7.92,4,4,0,0,1-1.21.74,4.62,4.62,0,0,1-1.76.3,4.05,4.05,0,0,1-1.58-.3,3.92,3.92,0,0,1-1.22-.8,3.74,3.74,0,0,1-.82-1.17,4.33,4.33,0,0,1-.36-1.4,5.79,5.79,0,0,1,0-.64,6.23,6.23,0,0,1,0-.66,4,4,0,0,1,.35-1.41,3.85,3.85,0,0,1,.82-1.18,3.8,3.8,0,0,1,1.22-.8,4.11,4.11,0,0,1,1.59-.3,4.6,4.6,0,0,1,1.76.3,4,4,0,0,1,1.21.74,3,3,0,0,1,.7.92,2.26,2.26,0,0,1,.24.82.36.36,0,0,1-.12.3.44.44,0,0,1-.31.13h-1.22a.39.39,0,0,1-.3-.14,2.53,2.53,0,0,1-.22-.29,3.14,3.14,0,0,0-.26-.34,1.48,1.48,0,0,0-.33-.27,1.55,1.55,0,0,0-.46-.18,3,3,0,0,0-.67-.06,2.1,2.1,0,0,0-.66.1,1.77,1.77,0,0,0-.58.32,1.69,1.69,0,0,0-.44.57A2.4,2.4,0,0,0,145.73,167.86Z"/><path class="cls-3" d="M155,161.22a.44.44,0,0,1,.43.43v1.25a.44.44,0,0,1-.43.43h-1.38a.44.44,0,0,1-.43-.43v-1.25a.44.44,0,0,1,.43-.43Zm.35,10.93a.44.44,0,0,1-.43.43h-1.22a.44.44,0,0,1-.43-.43v-7.46a.44.44,0,0,1,.43-.43h1.22a.44.44,0,0,1,.43.43Z"/><path class="cls-3" d="M165.38,172.15a.44.44,0,0,1-.43.43h-1.22a.44.44,0,0,1-.43-.43v-4.06a2.43,2.43,0,0,0-.45-1.54,1.63,1.63,0,0,0-1.38-.58,1.66,1.66,0,0,0-1.34.58,2.3,2.3,0,0,0-.49,1.54v4.06a.44.44,0,0,1-.43.43H158a.44.44,0,0,1-.43-.43v-7.46a.44.44,0,0,1,.43-.43h1.22a.44.44,0,0,1,.43.43v.37a3.59,3.59,0,0,1,1-.69,3,3,0,0,1,1.33-.27,3.87,3.87,0,0,1,1.63.3,2.81,2.81,0,0,1,1.06.82,3.14,3.14,0,0,1,.57,1.19,5.93,5.93,0,0,1,.17,1.43Z"/><path class="cls-3" d="M167.09,168.42a5.15,5.15,0,0,1,.27-1.69,4,4,0,0,1,.78-1.38,3.66,3.66,0,0,1,1.24-.92,3.82,3.82,0,0,1,1.62-.34,3.92,3.92,0,0,1,1.62.33,3.81,3.81,0,0,1,1.24.88,3.9,3.9,0,0,1,.79,1.3,4.39,4.39,0,0,1,.28,1.56v.72a.44.44,0,0,1-.43.43h-5.34a1.33,1.33,0,0,0,.15.65,1.46,1.46,0,0,0,.41.47,1.78,1.78,0,0,0,.59.29,2.47,2.47,0,0,0,.69.1,2.75,2.75,0,0,0,.83-.1,1.75,1.75,0,0,0,.53-.26,1.56,1.56,0,0,1,.29-.18.78.78,0,0,1,.3,0h1.28a.44.44,0,0,1,.31.13.35.35,0,0,1,.12.3,1.31,1.31,0,0,1-.25.58,2.75,2.75,0,0,1-.7.69,4.49,4.49,0,0,1-1.14.58,4.72,4.72,0,0,1-1.58.24,4.08,4.08,0,0,1-1.62-.31,3.45,3.45,0,0,1-1.24-.89,4,4,0,0,1-.78-1.37A5.35,5.35,0,0,1,167.09,168.42ZM171,166a2.06,2.06,0,0,0-.79.14,1.76,1.76,0,0,0-.55.35,1.57,1.57,0,0,0-.34.48,1.8,1.8,0,0,0-.15.5h3.62a2.76,2.76,0,0,0-.12-.5,1.31,1.31,0,0,0-.29-.48,1.49,1.49,0,0,0-.53-.35A2.21,2.21,0,0,0,171,166Z"/><path class="cls-3" d="M184.32,161.22a5.68,5.68,0,0,1,1.89.29,4.67,4.67,0,0,1,1.36.72,3.1,3.1,0,0,1,.82,1,2.45,2.45,0,0,1,.31,1,.36.36,0,0,1-.12.31.46.46,0,0,1-.31.12h-1.12a.66.66,0,0,1-.41-.1,1.06,1.06,0,0,1-.25-.28,2.1,2.1,0,0,0-.73-.7,2.84,2.84,0,0,0-1.45-.3,3.53,3.53,0,0,0-.79.09,2.29,2.29,0,0,0-.66.26,1.35,1.35,0,0,0-.44.41,1,1,0,0,0-.16.54,1.07,1.07,0,0,0,.15.6,1.19,1.19,0,0,0,.51.4,5.19,5.19,0,0,0,1,.31l1.47.34a10.34,10.34,0,0,1,1.66.49,3.84,3.84,0,0,1,1.14.67,2.5,2.5,0,0,1,.66.9,3,3,0,0,1,.22,1.17,2.86,2.86,0,0,1-.32,1.34,3.08,3.08,0,0,1-.91,1.06,4.62,4.62,0,0,1-1.46.7,6.84,6.84,0,0,1-1.94.26,6.68,6.68,0,0,1-1.71-.22,5.05,5.05,0,0,1-1.45-.62,3.46,3.46,0,0,1-1-1,2.58,2.58,0,0,1-.43-1.28.35.35,0,0,1,.12-.31.46.46,0,0,1,.31-.12h1.12a.75.75,0,0,1,.42.1.74.74,0,0,1,.24.29,3.05,3.05,0,0,0,.27.42,1.48,1.48,0,0,0,.43.37,2.61,2.61,0,0,0,.68.26,4.13,4.13,0,0,0,1,.1,5.87,5.87,0,0,0,.93-.07,2.69,2.69,0,0,0,.78-.24,1.65,1.65,0,0,0,.54-.42.92.92,0,0,0,.21-.62.78.78,0,0,0-.22-.58,1.79,1.79,0,0,0-.68-.38,9.51,9.51,0,0,0-1.13-.3q-.67-.14-1.55-.37a8.21,8.21,0,0,1-1.4-.46,3.3,3.3,0,0,1-1-.65,2.42,2.42,0,0,1-.58-.9,3.59,3.59,0,0,1-.19-1.24,2.8,2.8,0,0,1,.32-1.33,3.16,3.16,0,0,1,.88-1,4.32,4.32,0,0,1,1.34-.68A5.48,5.48,0,0,1,184.32,161.22Z"/><path class="cls-3" d="M194.37,164.1a4.42,4.42,0,0,1,1.59.27,3.79,3.79,0,0,1,1.23.75,3.75,3.75,0,0,1,.83,1.12,3.66,3.66,0,0,1,.36,1.38c0,.1,0,.22,0,.37v.89c0,.14,0,.26,0,.36a4,4,0,0,1-.37,1.38,3.54,3.54,0,0,1-.82,1.11,3.84,3.84,0,0,1-1.23.74,4.79,4.79,0,0,1-3.18,0,3.84,3.84,0,0,1-1.23-.74,3.52,3.52,0,0,1-.82-1.11,4,4,0,0,1-.37-1.38c0-.1,0-.22,0-.36s0-.29,0-.44,0-.3,0-.45,0-.27,0-.37a3.66,3.66,0,0,1,.36-1.38,3.75,3.75,0,0,1,.83-1.12,3.79,3.79,0,0,1,1.23-.75A4.42,4.42,0,0,1,194.37,164.1Zm1.94,3.6a2.08,2.08,0,0,0-.23-.82,1.55,1.55,0,0,0-.46-.52,1.65,1.65,0,0,0-.59-.26,3.06,3.06,0,0,0-1.31,0,1.65,1.65,0,0,0-.59.26,1.55,1.55,0,0,0-.46.52,2.09,2.09,0,0,0-.23.82c0,.08,0,.19,0,.32s0,.26,0,.4,0,.28,0,.41,0,.24,0,.31a2.09,2.09,0,0,0,.23.82,1.55,1.55,0,0,0,.46.52,1.65,1.65,0,0,0,.59.26,3,3,0,0,0,1.31,0,1.65,1.65,0,0,0,.59-.26,1.55,1.55,0,0,0,.46-.52,2.08,2.08,0,0,0,.23-.82,2.5,2.5,0,0,0,0-.31V168A2.85,2.85,0,0,0,196.31,167.7Z"/><path class="cls-3" d="M202.95,164.26h2.22a.44.44,0,0,1,.43.43v1.06a.44.44,0,0,1-.43.43h-2.22v6a.44.44,0,0,1-.43.43H201.3a.44.44,0,0,1-.43-.43v-6h-1.06a.44.44,0,0,1-.43-.43v-1.06a.44.44,0,0,1,.43-.43h1.06v-.72a3.38,3.38,0,0,1,.22-1.3,2.17,2.17,0,0,1,.64-.87,2.53,2.53,0,0,1,1-.48,5.46,5.46,0,0,1,1.3-.14h1.3a.44.44,0,0,1,.43.43v1.06a.44.44,0,0,1-.43.43h-1.14a1.66,1.66,0,0,0-.93.22.93.93,0,0,0-.32.82Z"/><path class="cls-3" d="M209.76,169.57a1.15,1.15,0,0,0,.26.79,1.29,1.29,0,0,0,1,.3h1a.44.44,0,0,1,.43.43v1.06a.44.44,0,0,1-.43.43H210.8a3.34,3.34,0,0,1-2.31-.73,2.86,2.86,0,0,1-.81-2.23v-3.44h-1.06a.44.44,0,0,1-.43-.43v-1.06a.44.44,0,0,1,.43-.43h1.06v-2.61a.44.44,0,0,1,.43-.43h1.22a.44.44,0,0,1,.43.43v2.61h2.06a.44.44,0,0,1,.43.43v1.06a.44.44,0,0,1-.43.43h-2.06Z"/><path class="cls-3" d="M222.11,169.22l1.44-4.58a1.16,1.16,0,0,1,.13-.26.35.35,0,0,1,.31-.13h1.22a.41.41,0,0,1,.3.13.42.42,0,0,1,.13.3.38.38,0,0,1,0,.11l-2.42,7.38a1,1,0,0,1-.14.27.38.38,0,0,1-.32.13h-1.21a.35.35,0,0,1-.31-.13,1.68,1.68,0,0,1-.15-.27l-1.55-4.27L218,172.18a1.61,1.61,0,0,1-.15.27.35.35,0,0,1-.31.13h-1.22a.38.38,0,0,1-.32-.13,1,1,0,0,1-.14-.27l-2.42-7.38a.35.35,0,0,1,0-.11.44.44,0,0,1,.43-.43H215a.35.35,0,0,1,.31.13,1.26,1.26,0,0,1,.14.26l1.44,4.58,1.54-4.58a.6.6,0,0,1,.15-.26.39.39,0,0,1,.3-.13h1.22a.39.39,0,0,1,.29.13.6.6,0,0,1,.15.26Z"/><path class="cls-3" d="M227,166.31a2.21,2.21,0,0,1,.3-.72,2.73,2.73,0,0,1,.66-.72,3.56,3.56,0,0,1,1-.55,4.32,4.32,0,0,1,1.43-.22,4.68,4.68,0,0,1,1.47.22A3.18,3.18,0,0,1,233,165a2.75,2.75,0,0,1,.73,1,3.85,3.85,0,0,1,.26,1.45v4.7a.44.44,0,0,1-.43.43h-1.22a.44.44,0,0,1-.43-.43v-.53a2.71,2.71,0,0,1-1,.79,3.48,3.48,0,0,1-1.61.33,3.83,3.83,0,0,1-1.23-.18,2.54,2.54,0,0,1-.91-.52,2.32,2.32,0,0,1-.57-.79,2.46,2.46,0,0,1-.2-1,2.09,2.09,0,0,1,.78-1.73,4.54,4.54,0,0,1,2.1-.85l2.61-.45a1,1,0,0,0-.43-.93,2,2,0,0,0-1.07-.27,1.43,1.43,0,0,0-.62.11,1.87,1.87,0,0,0-.43.3,1,1,0,0,1-.26.18.7.7,0,0,1-.26,0h-1.49a.41.41,0,0,1-.27-.1A.25.25,0,0,1,227,166.31Zm2.67,4.51a2.86,2.86,0,0,0,1-.15,2.16,2.16,0,0,0,.71-.41,1.68,1.68,0,0,0,.43-.58,1.57,1.57,0,0,0,.14-.66v-.16l-2.18.38a2.26,2.26,0,0,0-.94.33.69.69,0,0,0-.29.58.52.52,0,0,0,.34.5A1.91,1.91,0,0,0,229.67,170.82Z"/><path class="cls-3" d="M240,166.18a1.54,1.54,0,0,0-1.81,1.81v4.16a.44.44,0,0,1-.43.43h-1.22a.44.44,0,0,1-.43-.43v-7.46a.44.44,0,0,1,.43-.43h1.22a.44.44,0,0,1,.43.43v.37a3.21,3.21,0,0,1,.89-.59,3.11,3.11,0,0,1,1.24-.21h.72a.44.44,0,0,1,.43.43v1.06a.44.44,0,0,1-.43.43Z"/><path class="cls-3" d="M242.27,168.42a5.15,5.15,0,0,1,.27-1.69,4.05,4.05,0,0,1,.78-1.38,3.65,3.65,0,0,1,1.24-.92,3.82,3.82,0,0,1,1.62-.34,3.93,3.93,0,0,1,1.62.33,3.81,3.81,0,0,1,1.24.88,3.9,3.9,0,0,1,.79,1.3,4.39,4.39,0,0,1,.28,1.56v.72a.44.44,0,0,1-.43.43h-5.34a1.33,1.33,0,0,0,.15.65,1.46,1.46,0,0,0,.41.47,1.79,1.79,0,0,0,.59.29,2.47,2.47,0,0,0,.69.1,2.76,2.76,0,0,0,.83-.1,1.75,1.75,0,0,0,.53-.26,1.59,1.59,0,0,1,.29-.18.78.78,0,0,1,.3,0h1.28a.44.44,0,0,1,.31.13.36.36,0,0,1,.12.3,1.32,1.32,0,0,1-.25.58,2.76,2.76,0,0,1-.7.69,4.47,4.47,0,0,1-1.14.58,4.72,4.72,0,0,1-1.58.24,4.08,4.08,0,0,1-1.62-.31,3.45,3.45,0,0,1-1.24-.89,4,4,0,0,1-.78-1.37A5.35,5.35,0,0,1,242.27,168.42Zm3.92-2.4a2.06,2.06,0,0,0-.79.14,1.76,1.76,0,0,0-.55.35,1.57,1.57,0,0,0-.34.48,1.8,1.8,0,0,0-.15.5H248a2.76,2.76,0,0,0-.12-.5,1.31,1.31,0,0,0-.29-.48,1.48,1.48,0,0,0-.53-.35A2.21,2.21,0,0,0,246.19,166Z"/></g></svg>